<?xml version="1.0" encoding="utf-8"?>
<!-- Generator: Adobe Illustrator 24.1.3, SVG Export Plug-In . SVG Version: 6.00 Build 0)  -->
<svg version="1.1" id="Layer_1" xmlns="http://www.w3.org/2000/svg" xmlns:xlink="http://www.w3.org/1999/xlink" x="0px" y="0px"
	 viewBox="0 0 173 271.66" style="enable-background:new 0 0 173 271.66;" xml:space="preserve">
<style type="text/css">
	.st0{fill:#00B8D8;}
	.st1{fill:#7E96B0;}
	.st2{fill:#212629;}
	.st3{fill:#FFFFFF;}
</style>
<g>
	<g>
		<g>
			<polygon class="st0" points="89.93,231.58 89.93,271.66 173,224.14 173,184.05 			"/>
			<polygon class="st0" points="89.93,168.15 89.93,208.24 173,160.71 173,120.63 			"/>
			<polygon class="st1" points="86.16,154.37 7.4,109.57 0,113.87 86.17,162.87 173,113.2 165.6,108.93 			"/>
			<polygon class="st1" points="86.16,217.82 7.37,173.01 0,177.29 86.17,226.3 173,176.62 165.63,172.36 			"/>
			<path class="st2" d="M0,121.3v40.08l82.5,46.92v-40.08L0,121.3z"/>
			<polygon class="st0" points="89.93,104.7 89.93,144.79 173,97.26 173,57.18 			"/>
			<path class="st2" d="M0,57.85v40.08l82.5,46.92v-40.08L0,57.85z"/>
			<path class="st2" d="M0,184.72v40.08l82.5,46.92v-40.08L0,184.72z"/>
			<path class="st2" d="M86.83,0L35.16,30l45.23,7.82L76.63,59L6.18,46.83L0,50.42l86.17,49.01L173,49.75L86.83,0z M94.94,52.94
				l-1.83,2.11l0.85,2.63l-11.24,2.38l3.77-21.18l10.44,7.51l-2.54,3.07L94.94,52.94z M98.7,55.41l1.06-1.22l0.01,0l0-0.01l0,0l0,0
				l-0.51-3.32l1.6-1.65l7.53,5.42l-9.29,1.97L98.7,55.41z"/>
		</g>
		<polygon class="st3" points="25.23,89.72 41.25,88.81 57.27,108.01 		"/>
		<polygon class="st3" points="25.23,96.09 57.27,114.37 41.25,115.31 		"/>
	</g>
	<polygon class="st3" points="24.42,208.87 33.62,214.12 41.23,224.79 50.35,223.68 57.5,227.75 44.49,229.36 57.49,247.58 
		48.3,242.34 39.49,229.98 28.95,231.29 21.74,227.17 36.22,225.4 	"/>
	<polygon class="st3" points="23.52,144.78 58.97,165.02 58.96,178.86 49.96,173.72 55.36,185.77 43.92,170.28 23.52,158.63 	"/>
</g>
</svg>
