<?xml version="1.0" encoding="utf-8"?>
<!-- Generator: Adobe Illustrator 24.1.3, SVG Export Plug-In . SVG Version: 6.00 Build 0)  -->
<svg version="1.1" id="Layer_1" xmlns="http://www.w3.org/2000/svg" xmlns:xlink="http://www.w3.org/1999/xlink" x="0px" y="0px"
	 viewBox="0 0 40.75 63.98" style="enable-background:new 0 0 40.75 63.98;" xml:space="preserve">
<style type="text/css">
	.st0{fill:#00B8D8;}
	.st1{fill:#7E96B0;}
	.st2{fill:#212629;}
</style>
<g>
	<g>
		<g>
			<g>
				<polygon class="st0" points="21.18,54.54 21.18,63.98 40.75,52.79 40.75,43.35 				"/>
				<polygon class="st0" points="21.18,39.61 21.18,49.05 40.75,37.85 40.75,28.41 				"/>
				<polygon class="st1" points="20.29,36.36 1.74,25.81 0,26.82 20.3,38.36 40.75,26.66 39,25.66 				"/>
				<polygon class="st1" points="20.29,51.3 1.74,40.75 0,41.76 20.3,53.3 40.75,41.6 39.01,40.6 				"/>
				<path class="st2" d="M0,28.57v9.44l19.43,11.05v-9.44L0,28.57z"/>
				<polygon class="st0" points="21.18,24.66 21.18,34.1 40.75,22.91 40.75,13.47 				"/>
				<path class="st2" d="M0,13.63v9.44l19.43,11.05v-9.44L0,13.63z"/>
				<path class="st2" d="M0,43.51v9.44L19.43,64v-9.44L0,43.51z"/>
			</g>
		</g>
	</g>
	<path class="st2" d="M20.45,0L10.1,6.01l11.74,2.03l-1.03,5.82L2.14,10.63L0,11.88L20.3,23.42l20.45-11.7L20.45,0z M25.83,12.19
		l-0.5,0.58l0.23,0.72l-3.09,0.65l1.03-5.82l2.87,2.06l-0.7,0.84L25.83,12.19z M26.87,12.87l0.29-0.33l0,0v0l0,0l0,0l-0.14-0.91
		l0.44-0.45l2.07,1.49l-2.55,0.54L26.87,12.87z"/>
</g>
</svg>
