<?xml version="1.0" encoding="utf-8"?>
<!-- Generator: Adobe Illustrator 24.1.1, SVG Export Plug-In . SVG Version: 6.00 Build 0)  -->
<svg version="1.1" id="Layer_1" xmlns="http://www.w3.org/2000/svg" xmlns:xlink="http://www.w3.org/1999/xlink" x="0px" y="0px"
	 viewBox="0 0 225.13 203.36" style="enable-background:new 0 0 225.13 203.36;" xml:space="preserve">
<style type="text/css">
	.st0{fill:#A9E8E2;stroke:#01579B;stroke-width:1.2142;stroke-miterlimit:10;}
	.st1{fill:#01579B;}
</style>
<g>
	<path class="st0" d="M45.17,61.12V46.31c0-4.2,3.44-7.64,7.64-7.64h105.91c4.2,0,7.64,3.44,7.64,7.64v14.81
		c0,4.2-3.44,7.64-7.64,7.64H52.81C48.61,68.76,45.17,65.32,45.17,61.12z"/>
	<path class="st0" d="M45.17,106.67V91.86c0-4.2,3.44-7.64,7.64-7.64h105.91c4.2,0,7.64,3.44,7.64,7.64v14.81
		c0,4.2-3.44,7.64-7.64,7.64H52.81C48.61,114.31,45.17,110.87,45.17,106.67z"/>
	<path class="st0" d="M45.17,152.22v-14.81c0-4.2,3.44-7.64,7.64-7.64h105.91c4.2,0,7.64,3.44,7.64,7.64v14.81
		c0,4.2-3.44,7.64-7.64,7.64H52.81C48.61,159.86,45.17,156.42,45.17,152.22z"/>
	<g>
		<path class="st1" d="M64.29,156.68H52.88c-2.31,0-4.2-1.89-4.2-4.2V91.75c0-2.31,1.89-4.2,4.2-4.2h11.41c2.31,0,4.2,1.89,4.2,4.2
			v60.73C68.49,154.79,66.6,156.68,64.29,156.68z"/>
		<path class="st1" d="M63.98,64.07H53.2c-2.48,0-4.52-2.03-4.52-4.52V48.77c0-2.48,2.03-4.52,4.52-4.52h10.78
			c2.48,0,4.52,2.03,4.52,4.52v10.78C68.49,62.04,66.46,64.07,63.98,64.07z"/>
	</g>
</g>
</svg>
